<svg xmlns="http://www.w3.org/2000/svg" width="24" height="24" viewBox="0 0 24 24">
    <path id="Path_8" d="M24.034-.238,16.124-8.52l7.524-7.789a2.547,2.547,0,0,0,.5-1.445,2.553,2.553,0,0,0-2.624-2.467,2.6,2.6,0,0,0-2.084.881l-6.752,7.33-6.752-7.33a2.6,2.6,0,0,0-2.084-.881A2.553,2.553,0,0,0,1.23-17.753,2.484,2.484,0,0,0,1.848-16.2L9.256-8.52,1.346-.238A2.239,2.239,0,0,0,.69,1.348,2.548,2.548,0,0,0,3.314,3.78,2.812,2.812,0,0,0,5.359,3l7.331-7.93L20.021,3a2.812,2.812,0,0,0,2.045.775A2.548,2.548,0,0,0,24.69,1.348,2.239,2.239,0,0,0,24.034-.238Z" transform="translate(-0.69 20.22)" fill="#707070"/>
</svg>
