<svg xmlns="http://www.w3.org/2000/svg" width="60" height="68" viewBox="0 0 60 68">
    <g id="Union_1" fill="#fff">
        <path d="M 54.66150665283203 65.99950408935547 L 5.33880615234375 65.99950408935547 C 4.810361862182617 65.99950408935547 4.552906036376953 65.64282989501953 4.466739654541016 65.48948669433594 C 4.380584239959717 65.33615112304688 4.209872722625732 64.9307861328125 4.484739780426025 64.47937774658203 L 11.69749546051025 52.63244247436523 L 12.56856155395508 51.20170593261719 L 11.31287288665771 50.09309768676758 C 8.409873008728027 47.53010940551758 6.121084213256836 44.46731948852539 4.510072708129883 40.98980712890625 C 2.844517230987549 37.39453125 2.000006198883057 33.55067443847656 2.000006198883057 29.56499671936035 C 2.000006198883057 25.8464183807373 2.738661766052246 22.23989677429199 4.195450782775879 18.84559631347656 C 5.603795051574707 15.56416320800781 7.620872974395752 12.61625194549561 10.19066143035889 10.08374118804932 C 12.76245021820068 7.549263000488281 15.75731754302979 5.559374332427979 19.09206199645996 4.169352054595947 C 22.54547309875488 2.7298743724823 26.21532821655273 1.999996542930603 29.99969482421875 1.999996542930603 C 33.78428268432617 1.999996542930603 37.45432662963867 2.7298743724823 40.90788269042969 4.169363021850586 C 44.24275207519531 5.559385299682617 47.23770523071289 7.549274444580078 49.80955123901367 10.08376312255859 C 52.37937164306641 12.6162633895874 54.396484375 15.56416320800781 55.80485153198242 18.84559631347656 C 57.26165008544922 22.2398853302002 58.00030517578125 25.84640693664551 58.00030517578125 29.56499671936035 C 58.00030517578125 33.55066299438477 57.1557731628418 37.39453125 55.49018478393555 40.98981857299805 C 53.8791389465332 44.46735382080078 51.59028244018555 47.5301513671875 48.68721771240234 50.0931396484375 L 47.43148422241211 51.20176315307617 L 48.30260467529297 52.63253021240234 L 55.51552963256836 64.47929382324219 C 55.7900505065918 64.93046569824219 55.61907196044922 65.33617401123047 55.53281784057617 65.48963928222656 C 55.44664001464844 65.6429443359375 55.18923950195312 65.99950408935547 54.66150665283203 65.99950408935547 Z" stroke="none"/>
        <path d="M 52.88187026977539 63.9995002746582 L 44.85207748413086 50.81111526489258 L 47.3635368347168 48.59385299682617 C 50.05783843994141 46.21517562866211 52.18147659301758 43.37395095825195 53.67544937133789 40.14911270141602 C 55.21811294555664 36.8192024230957 56.00030136108398 33.25820159912109 56.00030136108398 29.56500244140625 C 56.00030136108398 26.11917686462402 55.31618881225586 22.77803993225098 53.96696472167969 19.63440132141113 C 52.66125106811523 16.59212684631348 50.79017639160156 13.8581018447876 48.40571212768555 11.5082893371582 C 46.0172119140625 9.154477119445801 43.23568725585938 7.306414604187012 40.13841247558594 6.015427112579346 C 36.92993927001953 4.678089618682861 33.5187873840332 4.000001907348633 29.99970054626465 4.000001907348633 C 26.48085021972656 4.000001907348633 23.06988906860352 4.678077220916748 19.86155128479004 6.015401840209961 C 16.76438903808594 7.306389331817627 13.98295021057129 9.154452323913574 11.59450054168701 11.50825214385986 C 9.210075378417969 13.85808944702148 7.339025497436523 16.59211540222168 6.033325672149658 19.63438987731934 C 4.684113025665283 22.77803993225098 4.000000476837158 26.11917686462402 4.000000476837158 29.56500244140625 C 4.000000476837158 33.25820159912109 4.782175540924072 36.8192138671875 6.324800491333008 40.14911270141602 C 7.818737983703613 43.37392807006836 9.942325592041016 46.21514129638672 12.63656330108643 48.59381484985352 L 15.1479377746582 50.81103897094727 L 7.118401050567627 63.9995002746582 L 52.88187026977539 63.9995002746582 M 54.6614990234375 67.99950408935547 L 5.33880090713501 67.99950408935547 C 2.997900724411011 67.99950408935547 1.55880069732666 65.43900299072266 2.776500701904297 63.43920135498047 L 9.989200592041016 51.59238815307617 C 3.857863187789917 46.1791877746582 6.805419729971618e-07 38.31636428833008 6.805419729971618e-07 29.56500244140625 C 6.805419729971618e-07 13.23630237579346 13.43160057067871 2.044677785306703e-06 29.99970054626465 2.044677785306703e-06 C 46.56869888305664 2.044677785306703e-06 60.00030136108398 13.23630237579346 60.00030136108398 29.56500244140625 C 60.00030136108398 38.31636428833008 56.14236450195312 46.17924118041992 50.0108757019043 51.59245300292969 L 57.22380065917969 63.43920135498047 C 58.44060134887695 65.43900299072266 57.00149917602539 67.99950408935547 54.6614990234375 67.99950408935547 Z" stroke="none" fill="#1079b5"/>
    </g>
</svg>
