<svg xmlns="http://www.w3.org/2000/svg" width="54.744" height="55.494" viewBox="0 0 54.744 55.494">
    <g id="Group_2" transform="translate(-1337 -39)">
        <g id="Subtraction_1" transform="translate(1426.256 57.253)" fill="#fff">
            <path d="M -42.63660049438477 35.2411003112793 C -43.70536804199219 35.2411003112793 -44.70932769775391 34.82542037963867 -45.46355819702148 34.07063293457031 L -56.14439010620117 23.38979148864746 L -57.1185188293457 22.4156608581543 L -58.37586975097656 22.97861099243164 C -61.01554870605469 24.16045188903809 -63.83280944824219 24.75970077514648 -66.74941253662109 24.75970077514648 C -69.51863861083984 24.75970077514648 -72.20395660400391 24.2177906036377 -74.73076629638672 23.1490306854248 C -77.17237854003906 22.11633110046387 -79.36561584472656 20.63748168945312 -81.24955749511719 18.7535514831543 C -83.13346862792969 16.86962127685547 -84.61232757568359 14.67638111114502 -85.64502716064453 12.23477172851562 C -86.71379089355469 9.707961082458496 -87.25569915771484 7.022641658782959 -87.25569915771484 4.253401756286621 C -87.25569915771484 1.484161496162415 -86.71379089355469 -1.20115852355957 -85.64502716064453 -3.72795844078064 C -84.61232757568359 -6.169578552246094 -83.13346862792969 -8.362818717956543 -81.24954986572266 -10.24675846099854 C -79.36561584472656 -12.13067817687988 -77.17237854003906 -13.60952854156494 -74.73078155517578 -14.64222812652588 C -72.20395660400391 -15.71098804473877 -69.51863861083984 -16.25289916992188 -66.74941253662109 -16.25289916992188 C -63.98016738891602 -16.25289916992188 -61.29484939575195 -15.71098804473877 -58.76803970336914 -14.64222812652588 C -56.32641983032227 -13.60952854156494 -54.1331901550293 -12.13067817687988 -52.24924850463867 -10.24674892425537 C -50.36532974243164 -8.362828254699707 -48.88647842407227 -6.169598579406738 -47.85376739501953 -3.727978467941284 C -46.78500747680664 -1.20115852355957 -46.24309921264648 1.484161496162415 -46.24309921264648 4.253401756286621 C -46.24309921264648 7.528401374816895 -46.99118804931641 10.65625190734863 -48.46657943725586 13.55007171630859 L -49.12677001953125 14.84495162963867 L -48.0990104675293 15.87271118164062 L -37.68330764770508 26.28841209411621 C -36.92758941650391 27.04413223266602 -36.51139831542969 28.04873085021973 -36.51139831542969 29.11714172363281 C -36.51139831542969 30.18541145324707 -36.927490234375 31.18967247009277 -37.68302917480469 31.94491195678711 L -39.8076171875 34.07040023803711 C -40.56245803833008 34.82522964477539 -41.5672492980957 35.2411003112793 -42.63660049438477 35.2411003112793 Z M -66.94290161132812 -5.999598503112793 C -72.48973083496094 -5.999598503112793 -77.00239562988281 -1.402948498725891 -77.00239562988281 4.247101306915283 C -77.00239562988281 9.897651672363281 -72.48973083496094 14.49470138549805 -66.94290161132812 14.49470138549805 C -65.54596710205078 14.49470138549805 -64.15332794189453 14.20707988739014 -63.02101898193359 13.68481159210205 C -59.2349853515625 11.95452308654785 -56.88339996337891 8.338662147521973 -56.88339996337891 4.247101306915283 C -56.88339996337891 -1.402948498725891 -61.39606857299805 -5.999598503112793 -66.94290161132812 -5.999598503112793 Z" stroke="none"/>
            <path d="M -42.63660430908203 33.2411003112793 C -42.09370422363281 33.2411003112793 -41.6043701171875 33.03872299194336 -41.22213745117188 32.65650177001953 L -39.09695816040039 30.5304012298584 C -38.71388244628906 30.14748001098633 -38.51139450073242 29.65877914428711 -38.51139450073242 29.11714553833008 C -38.51139450073242 28.5752124786377 -38.71406936645508 28.08607864379883 -39.09753799438477 27.70262336730957 L -51.5687370300293 15.23141288757324 L -50.24835968017578 12.64164638519287 C -48.91775894165039 10.03182411193848 -48.24309158325195 7.209612846374512 -48.24309158325195 4.253401756286621 C -48.24309158325195 1.753290414810181 -48.73184967041016 -0.669887363910675 -49.69579315185547 -2.948887348175049 C -50.62764739990234 -5.152087211608887 -51.96257019042969 -7.131642818450928 -53.66345977783203 -8.832531929016113 C -55.36437225341797 -10.53343200683594 -57.34391403198242 -11.86835384368896 -59.54716110229492 -12.80022048950195 C -61.82609176635742 -13.7641429901123 -64.24928283691406 -14.25289821624756 -66.74941253662109 -14.25289821624756 C -69.24952697753906 -14.25289821624756 -71.67271423339844 -13.7641429901123 -73.95169067382812 -12.80020999908447 C -76.15489196777344 -11.86834335327148 -78.13443756103516 -10.53342056274414 -79.8353271484375 -8.83254337310791 C -81.53622436523438 -7.131631851196289 -82.87114715576172 -5.152076244354248 -83.80302429199219 -2.948843002319336 C -84.76695251464844 -0.6699095964431763 -85.25569152832031 1.753279328346252 -85.25569152832031 4.253401756286621 C -85.25569152832031 6.753523826599121 -84.76695251464844 9.176712989807129 -83.80300140380859 11.45567893981934 C -82.87114715576172 13.65887928009033 -81.53622436523438 15.63843441009521 -79.83533477783203 17.33933448791504 C -78.13443756103516 19.04022407531738 -76.15489196777344 20.37514686584473 -73.95166015625 21.3070240020752 C -71.67271423339844 22.27094650268555 -69.24952697753906 22.75970077514648 -66.74941253662109 22.75970077514648 C -64.11634826660156 22.75970077514648 -61.57404708862305 22.21920204162598 -59.19313812255859 21.15321350097656 L -56.67841720581055 20.02731323242188 L -44.048828125 32.65693664550781 C -43.66695022583008 33.03910064697266 -43.17860412597656 33.2411003112793 -42.63660430908203 33.2411003112793 M -66.94290161132812 -7.999598503112793 C -60.29327011108398 -7.999598503112793 -54.88340377807617 -2.505753993988037 -54.88340377807617 4.247101306915283 C -54.88340377807617 6.644590377807617 -55.57021713256836 8.964357376098633 -56.86958312988281 10.95562362670898 C -58.15697860717773 12.92856216430664 -59.9962272644043 14.50104141235352 -62.18846130371094 15.50328922271729 C -63.57693481445312 16.14263725280762 -65.26496887207031 16.49470138549805 -66.94290161132812 16.49470138549805 C -73.592529296875 16.49470138549805 -79.00239562988281 11.00044631958008 -79.00239562988281 4.247101306915283 C -79.00239562988281 -2.505753993988037 -73.592529296875 -7.999598503112793 -66.94290161132812 -7.999598503112793 M -42.63660430908203 37.2411003112793 C -44.23988342285156 37.2411003112793 -45.74626922607422 36.61719131469727 -46.87830352783203 35.48431396484375 L -57.55859375 24.80400085449219 C -60.45721435546875 26.10177993774414 -63.5498161315918 26.75970077514648 -66.74941253662109 26.75970077514648 C -69.78775024414062 26.75970077514648 -72.73519134521484 26.16464614868164 -75.50988006591797 24.99103546142578 C -78.18989562988281 23.85750198364258 -80.5968017578125 22.23471260070801 -82.66375732421875 20.16776847839355 C -84.73070526123047 18.1008129119873 -86.35350799560547 15.69389057159424 -87.48703765869141 13.01386833190918 C -88.66063690185547 10.23920154571533 -89.25569152832031 7.291746139526367 -89.25569152832031 4.253401756286621 C -89.25569152832031 1.215045928955078 -88.66063690185547 -1.732398509979248 -87.48703765869141 -4.507065296173096 C -86.35350799560547 -7.187087535858154 -84.73070526123047 -9.594009399414062 -82.66375732421875 -11.66096496582031 C -80.5968017578125 -13.72791004180908 -78.18989562988281 -15.35069847106934 -75.50988006591797 -16.48423194885254 C -72.73519134521484 -17.6578426361084 -69.78775024414062 -18.25289916992188 -66.74941253662109 -18.25289916992188 C -63.7110595703125 -18.25289916992188 -60.76360321044922 -17.6578426361084 -57.98892593383789 -16.48423194885254 C -55.30889129638672 -15.35069847106934 -52.90199279785156 -13.72791004180908 -50.83503723144531 -11.66096496582031 C -48.76809310913086 -9.594020843505859 -47.14529418945312 -7.187098503112793 -46.01176071166992 -4.507065296173096 C -44.83816146850586 -1.732398509979248 -44.24309158325195 1.215045928955078 -44.24309158325195 4.253401756286621 C -44.24309158325195 7.847190380096436 -45.06460571289062 11.28067970275879 -46.68479156494141 14.4585018157959 L -36.26910400390625 24.87420082092285 C -35.13562774658203 26.00766754150391 -34.51139450073242 27.51451301574707 -34.51139450073242 29.11714553833008 C -34.51139450073242 30.71977996826172 -35.13562774658203 32.22637939453125 -36.26910400390625 33.35940170288086 L -38.39309310913086 35.48431396484375 C -39.52599334716797 36.61719131469727 -41.03302764892578 37.2411003112793 -42.63660430908203 37.2411003112793 Z M -66.94290161132812 -3.999598503112793 C -71.38691711425781 -3.999598503112793 -75.00239562988281 -0.3001540303230286 -75.00239562988281 4.247101306915283 C -75.00239562988281 8.794835090637207 -71.38691711425781 12.49470138549805 -66.94290161132812 12.49470138549805 C -65.84403991699219 12.49470138549805 -64.71885681152344 12.26605701446533 -63.85590362548828 11.86740112304688 C -60.78874969482422 10.4671573638916 -58.88340377807617 7.547235012054443 -58.88340377807617 4.247101306915283 C -58.88340377807617 -0.3001540303230286 -62.49888229370117 -3.999598503112793 -66.94290161132812 -3.999598503112793 Z" stroke="none" fill="#1079b5"/>
        </g>
    </g>
</svg>
